<svg xmlns="http://www.w3.org/2000/svg" xmlns:xlink="http://www.w3.org/1999/xlink" version="1.1" id="Layer_1" x="0px" y="0px" width="100%" viewBox="0 0 466 466" enable-background="new 0 0 466 466" xml:space="preserve">
<path fill="#000000" opacity="1.000000" stroke="none" d=" M1.000000,159.000000   C1.000000,106.000000 1.000000,53.500000 1.000000,1.000000   C156.333328,1.000000 311.666656,1.000000 467.000000,1.000000   C467.000000,156.333328 467.000000,311.666656 467.000000,467.000000   C311.666656,467.000000 156.333328,467.000000 1.000000,467.000000   C1.000000,364.500000 1.000000,262.000000 1.000000,159.000000  M51.988880,420.003326   C51.988880,420.003326 51.933109,420.035187 52.489429,420.689209   C53.807526,420.793457 55.125610,420.988861 56.443718,420.989014   C168.476410,421.003265 280.509125,421.006287 392.541779,420.962067   C394.091309,420.961456 395.640594,420.352600 397.919952,419.993774   C408.422058,416.821564 420.169373,399.759674 420.003418,387.107117   C420.002289,300.034515 419.998718,212.961914 420.015198,125.889320   C420.015594,123.904419 420.242584,121.919571 420.832001,119.508827   C434.464661,106.301880 448.097290,93.094925 462.166473,79.465073   C429.463043,58.831078 398.078369,39.029137 366.583160,19.157459   C353.696838,31.373413 340.814087,43.585999 327.170959,56.189438   C325.412354,56.460304 323.653870,56.967506 321.895172,56.968151   C232.971756,57.000690 144.048340,56.983940 55.124943,57.028233   C53.385002,57.029099 51.645393,57.691891 49.286995,58.307549   C35.405575,65.692307 29.220427,78.196373 29.169758,92.964485   C28.838879,189.400772 29.073374,285.838867 28.908730,382.276001   C28.889290,393.661499 32.172997,403.730713 39.170631,412.257111   C41.874676,415.551880 46.970097,416.884064 51.169987,419.564209   C51.379913,419.842712 51.657005,420.010101 51.988880,420.003326  z" style="&#10;    fill: white;&#10;"/>
<path fill="#EF7725" opacity="1.000000" stroke="none" d=" M327.931305,55.798584   C340.814087,43.585999 353.696838,31.373413 366.583160,19.157459   C398.078369,39.029137 429.463043,58.831078 462.166473,79.465073   C448.097290,93.094925 434.464661,106.301880 420.511841,119.478424   C419.792328,119.118477 419.392975,118.788925 418.647339,118.586739   C415.759308,121.153160 411.825470,122.645973 412.284607,127.503204   C411.924774,128.132401 411.769440,128.522385 411.282806,128.938477   C398.917816,140.483490 386.838013,151.954666 374.863068,163.534332   C362.047272,175.927139 349.406006,188.500992 336.543732,200.844910   C327.936584,209.105179 319.055481,217.079559 310.370575,225.260010   C309.674316,225.915817 309.551117,227.179993 308.813843,228.298203   C306.677521,229.149445 304.464447,229.416595 303.166656,230.648209   C291.310303,241.899872 279.613098,253.319275 267.346527,264.711182   C230.587952,264.713196 194.352295,264.693726 157.881500,264.482788   C152.872345,262.606628 147.638550,261.676270 143.409012,259.098328   C129.758774,250.778427 116.545120,241.745605 103.008553,233.233505   C99.570786,231.071777 95.559052,229.822815 91.854729,227.795380   C91.557976,227.071335 91.276649,226.612717 90.868462,226.355042   C79.281464,219.040344 67.652237,211.791840 56.115948,204.398270   C54.397686,203.297043 53.106964,201.528687 51.595634,200.046600   C77.580345,174.891739 102.909546,150.371445 128.286911,125.804535   C154.484344,141.833527 180.279312,157.616287 205.889267,173.285843   C215.440353,163.875214 224.467545,154.781769 233.718994,145.922485   C242.602219,137.415817 251.832138,129.270767 260.698425,120.747025   C269.147491,112.624367 277.203369,104.092766 285.651611,95.969238   C295.346863,86.646698 305.283508,77.575241 315.352631,68.260406   C315.810120,67.844032 316.030273,67.561958 316.625488,67.211990   C322.625336,66.204659 325.995178,62.581413 328.221375,57.354744   C328.085510,56.627895 328.008423,56.213238 327.931305,55.798584  z"/>
<path fill="#051174" opacity="1.000000" stroke="none" d=" M412.489136,127.264000   C411.825470,122.645973 415.759308,121.153160 418.638733,119.096451   C418.985107,206.914963 418.987549,294.351135 419.040588,381.787262   C419.041840,383.875977 419.608643,385.964355 419.911621,388.052887   C420.169373,399.759674 408.422058,416.821564 397.074921,419.951935   C352.422028,419.941132 308.614166,419.986176 264.806305,420.000061   C193.848572,420.022552 122.890839,420.024536 51.933109,420.035187   C51.933109,420.035187 51.988880,420.003326 51.878563,419.822937   C51.556206,419.387726 51.292137,419.210327 50.976032,419.110382   C46.970097,416.884064 41.874676,415.551880 39.170631,412.257111   C32.172997,403.730713 28.889290,393.661499 28.908730,382.276001   C29.073374,285.838867 28.838879,189.400772 29.169758,92.964485   C29.220427,78.196373 35.405575,65.692307 49.864155,58.452858   C60.209606,58.397053 69.977798,58.027161 79.746208,58.021450   C160.270920,57.974354 240.795670,57.997562 321.320404,57.981068   C323.640350,57.980591 325.960236,57.776226 328.280151,57.666931   C325.995178,62.581413 322.625336,66.204659 316.147583,67.119972   C229.528442,67.066246 143.762253,67.030937 57.996071,67.058708   C56.649055,67.059151 55.302292,67.835381 53.704044,68.487877   C48.234734,69.765289 44.349865,72.811371 42.123745,77.454559   C40.035480,81.810196 38.686016,86.520050 36.722374,91.366241   C36.291901,92.636497 36.027245,93.614487 36.026810,94.592598   C36.005745,141.999527 35.998650,189.406479 36.049877,236.813354   C36.051388,238.209991 36.693748,239.605927 37.136585,241.022217   C37.235859,241.042236 37.211819,241.243332 37.216152,241.485352   C37.122505,242.035507 37.000973,242.334061 36.653511,242.888153   C36.368069,243.788330 36.285011,244.423386 36.180901,245.523315   C36.204861,258.340149 36.249874,270.692078 36.217312,283.503784   C36.177723,294.290802 36.215714,304.618073 36.176407,315.411621   C36.101856,330.579254 36.104599,345.280609 36.047558,360.448517   C35.999878,368.909058 35.626865,376.926331 36.109386,384.891846   C36.948986,398.752228 44.178722,411.411926 62.572338,411.339111   C171.661606,410.907135 280.753448,411.127350 389.844421,411.123352   C399.639313,411.122986 407.159485,405.430481 410.288422,396.064972   C414.691956,382.884247 412.423584,369.346405 412.776764,355.481659   C412.708923,343.294891 412.588562,331.570343 412.546692,319.691711   C412.625183,319.537628 412.588593,319.193726 412.671753,318.719849   C412.726318,305.189575 412.697723,292.133209 412.742615,278.597198   C412.558868,266.486725 412.301575,254.855881 412.275391,242.857666   C412.669098,241.014847 412.972534,239.539520 412.973633,238.063980   C412.999786,202.945847 413.000946,167.827698 412.971649,132.709564   C412.970123,130.894241 412.657104,129.079178 412.489136,127.264000  z"/>
<path fill="#394077" opacity="1.000000" stroke="none" d=" M52.211269,420.362183   C122.890839,420.024536 193.848572,420.022552 264.806305,420.000061   C308.614166,419.986176 352.422028,419.941132 396.709930,419.968842   C395.640594,420.352600 394.091309,420.961456 392.541779,420.962067   C280.509125,421.006287 168.476410,421.003265 56.443718,420.989014   C55.125610,420.988861 53.807526,420.793457 52.211269,420.362183  z"/>
<path fill="#414878" opacity="1.000000" stroke="none" d=" M328.221375,57.354744   C325.960236,57.776226 323.640350,57.980591 321.320404,57.981068   C240.795670,57.997562 160.270920,57.974354 79.746208,58.021450   C69.977798,58.027161 60.209606,58.397053 50.173470,58.322006   C51.645393,57.691891 53.385002,57.029099 55.124943,57.028233   C144.048340,56.983940 232.971756,57.000690 321.895172,56.968151   C323.653870,56.967506 325.412354,56.460304 327.551147,55.994011   C328.008423,56.213238 328.085510,56.627895 328.221375,57.354744  z"/>
<path fill="#2B3176" opacity="1.000000" stroke="none" d=" M419.957520,387.580017   C419.608643,385.964355 419.041840,383.875977 419.040588,381.787262   C418.987549,294.351135 418.985107,206.914963 418.984985,118.969086   C419.392975,118.788925 419.792328,119.118477 420.277771,119.691360   C420.242584,121.919571 420.015594,123.904419 420.015198,125.889320   C419.998718,212.961914 420.002289,300.034515 419.957520,387.580017  z"/>
<path fill="#394077" opacity="1.000000" stroke="none" d=" M51.073009,419.337280   C51.292137,419.210327 51.556206,419.387726 51.884754,419.854462   C51.657005,420.010101 51.379913,419.842712 51.073009,419.337280  z"/>
<path fill="#000000" opacity="1.000000" stroke="none" d=" M37.011452,91.074036   C38.686016,86.520050 40.035480,81.810196 42.123745,77.454559   C44.349865,72.811371 48.234734,69.765289 54.170059,68.395256   C140.480804,68.043594 226.074173,68.021324 311.667542,68.018456   C312.816803,68.018417 313.966034,68.263847 315.115295,68.394714   C305.283508,77.575241 295.346863,86.646698 285.651611,95.969238   C277.203369,104.092766 269.147491,112.624367 260.698425,120.747025   C251.832138,129.270767 242.602219,137.415817 233.718994,145.922485   C224.467545,154.781769 215.440353,163.875214 205.889267,173.285843   C180.279312,157.616287 154.484344,141.833527 128.286911,125.804535   C102.909546,150.371445 77.580345,174.891739 51.595634,200.046600   C53.106964,201.528687 54.397686,203.297043 56.115948,204.398270   C67.652237,211.791840 79.281464,219.040344 90.868462,226.355042   C91.276649,226.612717 91.557976,227.071335 91.406860,227.868103   C79.778229,228.306915 68.640953,228.283768 57.504280,228.354858   C55.910324,228.365036 54.314102,228.802292 52.727768,229.090500   C45.426533,230.416962 41.768108,236.405426 37.211819,241.243332   C37.211819,241.243332 37.235859,241.042236 37.123077,240.552780   C37.010681,190.400223 37.011066,140.737137 37.011452,91.074036  z"/>
<path fill="#0759FF" opacity="1.000000" stroke="none" d=" M412.669098,279.076843   C412.697723,292.133209 412.726318,305.189575 412.522034,318.705688   C412.289185,319.165405 412.012573,319.291077 411.782227,319.032227   C405.596039,309.918579 397.390686,305.851868 386.616791,305.862427   C277.976257,305.969177 169.335495,305.984131 60.695072,305.828491   C51.157833,305.814850 42.988537,308.111786 36.253704,314.945343   C36.215714,304.618073 36.177723,294.290802 36.431870,283.242371   C42.301273,268.977936 52.765671,264.538635 66.898376,264.733002   C97.298447,265.151184 127.709862,264.743744 158.116638,264.674255   C194.352295,264.693726 230.587952,264.713196 267.738770,264.764679   C306.753082,264.825348 344.855652,265.151184 382.949524,264.715942   C395.700653,264.570282 405.761261,268.068542 412.669098,279.076843  z"/>
<path fill="#000000" opacity="1.000000" stroke="none" d=" M309.161621,228.161438   C309.551117,227.179993 309.674316,225.915817 310.370575,225.260010   C319.055481,217.079559 327.936584,209.105179 336.543732,200.844910   C349.406006,188.500992 362.047272,175.927139 374.863068,163.534332   C386.838013,151.954666 398.917816,140.483490 411.419189,129.394394   C411.918823,166.619705 411.952393,203.415176 411.968811,240.210648   C411.969086,240.864487 411.763245,241.518417 411.386719,241.961884   C405.756592,233.089767 398.384521,228.216522 387.799164,228.266602   C361.587402,228.390564 335.374237,228.216034 309.161621,228.161438  z"/>
<path fill="#06F3FC" opacity="1.000000" stroke="none" d=" M308.813843,228.298203   C335.374237,228.216034 361.587402,228.390564 387.799164,228.266602   C398.384521,228.216522 405.756592,233.089767 411.425934,242.247375   C411.836060,242.903870 411.940186,243.064453 412.044281,243.225052   C412.301575,254.855881 412.558868,266.486725 412.742615,278.597198   C405.761261,268.068542 395.700653,264.570282 382.949524,264.715942   C344.855652,265.151184 306.753082,264.825348 268.261688,264.743195   C279.613098,253.319275 291.310303,241.899872 303.166656,230.648209   C304.464447,229.416595 306.677521,229.149445 308.813843,228.298203  z"/>
<path fill="#07F3FC" opacity="1.000000" stroke="none" d=" M157.881500,264.482788   C127.709862,264.743744 97.298447,265.151184 66.898376,264.733002   C52.765671,264.538635 42.301273,268.977936 36.509445,282.782593   C36.249874,270.692078 36.204861,258.340149 36.431412,245.303223   C36.753944,243.953186 36.804920,243.288116 36.855896,242.623047   C37.000973,242.334061 37.122505,242.035507 37.216152,241.485352   C41.768108,236.405426 45.426533,230.416962 52.727768,229.090500   C54.314102,228.802292 55.910324,228.365036 57.504280,228.354858   C68.640953,228.283768 79.778229,228.306915 91.363174,228.227173   C95.559052,229.822815 99.570786,231.071777 103.008553,233.233505   C116.545120,241.745605 129.758774,250.778427 143.409012,259.098328   C147.638550,261.676270 152.872345,262.606628 157.881500,264.482788  z"/>
<path fill="#555577" opacity="1.000000" stroke="none" d=" M315.352631,68.260406   C313.966034,68.263847 312.816803,68.018417 311.667542,68.018456   C226.074173,68.021324 140.480804,68.043594 54.421425,68.156944   C55.302292,67.835381 56.649055,67.059151 57.996071,67.058708   C143.762253,67.030937 229.528442,67.066246 315.772552,67.187881   C316.030273,67.561958 315.810120,67.844032 315.352631,68.260406  z"/>
<path fill="#222E74" opacity="1.000000" stroke="none" d=" M412.275391,242.857666   C411.940186,243.064453 411.836060,242.903870 411.692749,242.457794   C411.763245,241.518417 411.969086,240.864487 411.968811,240.210648   C411.952393,203.415176 411.918823,166.619705 411.750549,129.368317   C411.769440,128.522385 411.924774,128.132401 412.284607,127.503204   C412.657104,129.079178 412.970123,130.894241 412.971649,132.709564   C413.000946,167.827698 412.999786,202.945847 412.973633,238.063980   C412.972534,239.539520 412.669098,241.014847 412.275391,242.857666  z"/>
<path fill="#2205DD" opacity="1.000000" stroke="none" d=" M412.724213,355.943848   C412.423584,369.346405 414.691956,382.884247 410.288422,396.064972   C407.159485,405.430481 399.639313,411.122986 389.844421,411.123352   C280.753448,411.127350 171.661606,410.907135 62.572338,411.339111   C44.178722,411.411926 36.948986,398.752228 36.109386,384.891846   C35.626865,376.926331 35.999878,368.909058 36.368603,360.363129   C37.226444,359.369354 37.886669,359.017181 38.153412,358.472412   C43.479523,347.594543 52.410187,343.865417 64.189926,343.883514   C172.064255,344.049072 279.938995,344.014496 387.813477,343.921631   C397.129089,343.913605 404.640381,346.917938 410.308929,354.391022   C410.852173,355.107239 411.906921,355.435486 412.724213,355.943848  z"/>
<path fill="#1407FF" opacity="1.000000" stroke="none" d=" M412.776764,355.481659   C411.906921,355.435486 410.852173,355.107239 410.308929,354.391022   C404.640381,346.917938 397.129089,343.913605 387.813477,343.921631   C279.938995,344.014496 172.064255,344.049072 64.189926,343.883514   C52.410187,343.865417 43.479523,347.594543 38.153412,358.472412   C37.886669,359.017181 37.226444,359.369354 36.428391,359.896576   C36.104599,345.280609 36.101856,330.579254 36.176407,315.411621   C42.988537,308.111786 51.157833,305.814850 60.695072,305.828491   C169.335495,305.984131 277.976257,305.969177 386.616791,305.862427   C397.390686,305.851868 405.596039,309.918579 411.847595,319.132233   C412.143311,319.491089 412.468201,319.845764 412.468201,319.845764   C412.588562,331.570343 412.708923,343.294891 412.776764,355.481659  z"/>
<path fill="#414974" opacity="1.000000" stroke="none" d=" M36.722374,91.366241   C37.011066,140.737137 37.010681,190.400223 37.023804,240.532761   C36.693748,239.605927 36.051388,238.209991 36.049877,236.813354   C35.998650,189.406479 36.005745,141.999527 36.026810,94.592598   C36.027245,93.614487 36.291901,92.636497 36.722374,91.366241  z"/>
<path fill="#414974" opacity="1.000000" stroke="none" d=" M36.653511,242.888153   C36.804920,243.288116 36.753944,243.953186 36.452461,244.838348   C36.285011,244.423386 36.368069,243.788330 36.653511,242.888153  z"/>
<path fill="#2205DD" opacity="1.000000" stroke="none" d=" M412.546692,319.691711   C412.468201,319.845764 412.143311,319.491089 412.077942,319.391083   C412.012573,319.291077 412.289185,319.165405 412.438904,319.179565   C412.588593,319.193726 412.625183,319.537628 412.546692,319.691711  z"/>
</svg>